<svg width="110" height="137" viewBox="0 0 110 137" fill="none" xmlns="http://www.w3.org/2000/svg">
<path fill-rule="evenodd" clip-rule="evenodd" d="M72.4239 1.55378C59.2468 5.01644 50.7068 14.7382 49.6421 27.4881C49.3982 30.408 49.4456 34.1186 49.7469 35.7329L50.2961 38.6698L52.1546 34.9899C56.8973 25.6005 64.8338 18.002 75.5804 12.5628C83.0336 8.79075 82.9548 9.37106 75.4389 13.6059C63.9581 20.0753 53.9856 31.6623 49.3301 43.9417C48.4062 46.378 47.4792 48.1996 47.2704 47.9892C47.0609 47.7797 46.1362 45.7463 45.2153 43.4719C41.4845 34.2591 34.1843 25.381 25.6947 19.7314C23.8018 18.4718 22.8825 17.6574 23.6519 17.9214C29.0684 19.7821 38.7097 28.6817 42.0092 34.867L43.6681 37.9774L43.9006 33.9037C44.6042 21.5913 35.5028 11.3446 21.2213 8.36857C16.9513 7.47968 0.98406 7.63781 0.0463863 8.57966C-0.237363 8.86444 0.810444 10.2254 2.37527 11.6048C3.9401 12.9834 7.54166 17.5814 10.3784 21.8224C18.7027 34.266 24.7479 38.7642 35.8141 40.7492C40.862 41.6542 41.1633 41.8307 42.6494 44.7553C45.6222 50.6037 46.5477 55.2746 46.4758 64.0759C46.4383 68.7199 46.7243 75.6161 47.1113 79.4011C47.9251 87.3497 47.857 87.4587 42.0819 87.4763C37.1969 87.4909 26.0848 89.3892 17.6442 91.6513L11.1631 93.3884L11.1746 90.6304C11.1807 89.1129 11.7084 85.6448 12.3478 82.9229C15.5838 69.1429 25.1288 58.3074 38.0558 53.7386C40.9744 52.7069 42.1385 51.8964 42.1385 50.8939C42.1385 48.7476 38.4206 49.2543 32.1912 52.2479C24.8183 55.7912 15.5432 65.083 12.0319 72.4436C5.69079 85.737 5.90952 99.6436 12.6652 112.676C22.881 132.383 45.8532 141.78 66.2641 134.6C69.858 133.335 74.7582 130.996 77.1528 129.4C95.4329 117.223 101.894 92.5587 92.1097 72.3039C88.4982 64.8274 79.9261 56.36 72.2075 52.6448C66.5616 49.9274 56.6976 47.2278 55.3875 48.0407C54.6005 48.5289 54.5531 51.4058 55.3317 51.4235C58.3106 51.4934 66.9906 54.0763 70.9012 56.0575C77.9444 59.6254 85.6064 67.3359 88.7774 74.0463C91.4413 79.6813 92.9992 85.6794 92.9992 90.2958C92.9992 92.8949 92.8975 93.0016 90.896 92.4873C81.8213 90.1561 71.8129 88.2155 66.9975 87.8532C54.2655 86.8953 55.1129 87.2676 53.6353 81.9834C50.8215 71.9185 50.6295 52.2502 53.2705 44.6939C54.0697 42.4088 54.4154 42.1992 57.3875 42.1992C59.1718 42.1992 63.2407 41.5298 66.4285 40.7116C77.9498 37.754 83.9139 33.4554 92.59 21.8577C98.7568 13.6144 104.243 7.8159 108.566 4.97346C111.236 3.21795 110.642 2.83107 102.783 1.20221C94.3981 -0.534874 79.7242 -0.365234 72.4239 1.55378ZM57.1221 90.1369C59.8785 93.2879 65.3983 95.5262 72.349 96.313C75.0832 96.6223 78.1486 97.3055 79.1605 97.8313C80.7292 98.6458 80.1211 98.7302 75.0389 98.4024L69.0763 98.0186L70.5211 100.516C71.3165 101.888 73.3433 104.232 75.0259 105.725C76.7085 107.217 77.3968 108.175 76.5555 107.855C72.4775 106.3 72.2419 106.352 72.7551 108.689C73.022 109.905 73.565 111.928 73.9628 113.185C74.4867 114.842 74.4545 115.239 73.8465 114.629C73.3853 114.166 72.4912 111.512 71.8587 108.731C70.3834 102.24 68.8759 100.406 62.5784 97.4406C59.7493 96.1088 56.6609 94.3004 55.7141 93.4222C54.2035 92.0206 53.9932 91.986 53.9932 93.1359C53.9932 95.6452 56.2854 99.9185 60.9768 106.156C66.1554 113.041 69.2889 119.055 69.2484 122.03C69.2262 123.657 69.0717 123.526 68.2335 121.172C66.8606 117.315 64.4874 113.64 61.5007 110.743L58.9646 108.284V114.316C58.9646 117.634 58.7114 119.949 58.4024 119.462C58.0934 118.975 57.8357 116.233 57.8288 113.37C57.8173 108.037 56.6632 104.153 54.1309 100.922L52.6976 99.0933L50.6685 104.052C48.3412 109.74 48.1377 112.688 49.8433 115.999C50.5049 117.283 50.8735 118.509 50.6609 118.722C50.449 118.934 49.5396 117.66 48.6395 115.889C47.7393 114.118 46.8039 112.869 46.5614 113.114C46.3182 113.358 45.3278 116.241 44.361 119.521C42.3954 126.187 41.7331 123.876 43.571 116.765L44.6218 112.701L42.6149 113.181C41.5121 113.445 38.995 114.653 37.0233 115.865C31.6198 119.187 33.4898 116.473 39.1595 112.767C41.8677 110.995 44.9278 108.539 45.9595 107.31C48.1599 104.685 49.5863 99.9438 49.2559 96.3545L49.0219 93.8091L44.0627 96.6285C39.6528 99.1355 38.9499 99.8685 37.7063 103.254C36.9384 105.348 35.7874 107.58 35.1495 108.213C33.9067 109.447 33.9395 109.345 37.4463 101.113C38.1201 99.53 38.4918 98.2343 38.2715 98.2343C38.0512 98.2343 36.5522 98.9098 34.9399 99.735C33.1449 100.655 30.4864 103.297 28.0795 106.556C25.9181 109.482 23.5655 112.348 22.8519 112.923C22.1375 113.499 22.445 112.761 23.5341 111.284C24.6232 109.806 26.1093 107.388 26.8374 105.91C27.5647 104.433 29.1793 102.145 30.4252 100.827L32.6906 98.4293L30.6569 97.9165C29.5387 97.6348 27.8791 97.6341 26.9682 97.915C26.0573 98.1952 25.5915 98.1307 25.9334 97.7707C26.2745 97.4107 29.382 96.8956 32.839 96.6262C40.3755 96.0374 44.9867 93.958 47.2352 90.133C48.589 87.831 49.1809 87.4879 51.7974 87.4879C54.2686 87.4879 55.2177 87.9599 57.1221 90.1369Z" fill="#03624C"/>
</svg>
